<mxfile host="Electron" modified="2023-08-08T14:15:32.340Z" agent="Mozilla/5.0 (Windows NT 10.0; Win64; x64) AppleWebKit/537.36 (KHTML, like Gecko) draw.io/21.6.5 Chrome/114.0.5735.243 Electron/25.3.1 Safari/537.36" etag="Jjr-udv5IaQwzk8_Q2Cq" version="21.6.5" type="device">
  <diagram name="Page-1" id="PZBUt0mixPUDvclzlgDn">
    <mxGraphModel dx="880" dy="545" grid="1" gridSize="10" guides="1" tooltips="1" connect="1" arrows="1" fold="1" page="1" pageScale="1" pageWidth="1169" pageHeight="827" math="0" shadow="0">
      <root>
        <mxCell id="0" />
        <mxCell id="1" parent="0" />
        <mxCell id="xgo39UhWLo-hMsVlRPf4-1" value="P1" style="shape=folder;fontStyle=1;tabWidth=50;tabHeight=30;tabPosition=left;html=1;boundedLbl=1;labelInHeader=1;container=1;collapsible=0;recursiveResize=0;whiteSpace=wrap;" vertex="1" parent="1">
          <mxGeometry width="120" height="100" as="geometry" />
        </mxCell>
        <mxCell id="xgo39UhWLo-hMsVlRPf4-2" value="&lt;b&gt;A&lt;/b&gt;" style="html=1;whiteSpace=wrap;" vertex="1" parent="xgo39UhWLo-hMsVlRPf4-1">
          <mxGeometry width="50" height="30" relative="1" as="geometry">
            <mxPoint x="35" y="50" as="offset" />
          </mxGeometry>
        </mxCell>
        <mxCell id="xgo39UhWLo-hMsVlRPf4-4" value="P2" style="shape=folder;fontStyle=1;tabWidth=50;tabHeight=30;tabPosition=left;html=1;boundedLbl=1;labelInHeader=1;container=1;collapsible=0;recursiveResize=0;whiteSpace=wrap;" vertex="1" parent="1">
          <mxGeometry x="200" width="120" height="100" as="geometry" />
        </mxCell>
        <mxCell id="xgo39UhWLo-hMsVlRPf4-5" value="&lt;b&gt;A&lt;/b&gt;" style="html=1;whiteSpace=wrap;" vertex="1" parent="xgo39UhWLo-hMsVlRPf4-4">
          <mxGeometry width="50" height="30" relative="1" as="geometry">
            <mxPoint x="35" y="50" as="offset" />
          </mxGeometry>
        </mxCell>
        <mxCell id="xgo39UhWLo-hMsVlRPf4-6" value="«merge»" style="endArrow=open;startArrow=none;endFill=0;startFill=0;endSize=8;html=1;verticalAlign=bottom;dashed=1;labelBackgroundColor=none;rounded=0;entryX=0;entryY=0;entryDx=120;entryDy=65;entryPerimeter=0;exitX=0;exitY=0;exitDx=0;exitDy=65;exitPerimeter=0;" edge="1" parent="1" source="xgo39UhWLo-hMsVlRPf4-4" target="xgo39UhWLo-hMsVlRPf4-1">
          <mxGeometry width="160" relative="1" as="geometry">
            <mxPoint x="200" y="40" as="sourcePoint" />
            <mxPoint x="360" y="40" as="targetPoint" />
          </mxGeometry>
        </mxCell>
        <mxCell id="xgo39UhWLo-hMsVlRPf4-9" style="edgeStyle=orthogonalEdgeStyle;rounded=0;orthogonalLoop=1;jettySize=auto;html=1;exitX=0;exitY=0;exitDx=0;exitDy=65;exitPerimeter=0;entryX=0;entryY=0;entryDx=120;entryDy=65;entryPerimeter=0;labelBackgroundColor=none;endArrow=open;verticalAlign=bottom;startArrow=none;endFill=0;startFill=0;endSize=8;dashed=1;" edge="1" parent="1" source="xgo39UhWLo-hMsVlRPf4-7" target="xgo39UhWLo-hMsVlRPf4-4">
          <mxGeometry relative="1" as="geometry" />
        </mxCell>
        <mxCell id="xgo39UhWLo-hMsVlRPf4-10" value="«import»" style="edgeLabel;html=1;align=center;verticalAlign=middle;resizable=0;points=[];" vertex="1" connectable="0" parent="xgo39UhWLo-hMsVlRPf4-9">
          <mxGeometry x="-0.1" y="1" relative="1" as="geometry">
            <mxPoint x="-5" y="-16" as="offset" />
          </mxGeometry>
        </mxCell>
        <mxCell id="xgo39UhWLo-hMsVlRPf4-7" value="P3" style="shape=folder;fontStyle=1;tabWidth=50;tabHeight=30;tabPosition=left;html=1;boundedLbl=1;labelInHeader=1;container=1;collapsible=0;recursiveResize=0;whiteSpace=wrap;" vertex="1" parent="1">
          <mxGeometry x="400" width="240" height="100" as="geometry" />
        </mxCell>
        <mxCell id="xgo39UhWLo-hMsVlRPf4-8" value="&lt;b&gt;A&lt;/b&gt;" style="html=1;whiteSpace=wrap;" vertex="1" parent="xgo39UhWLo-hMsVlRPf4-7">
          <mxGeometry width="50" height="30" relative="1" as="geometry">
            <mxPoint x="35" y="50" as="offset" />
          </mxGeometry>
        </mxCell>
        <mxCell id="xgo39UhWLo-hMsVlRPf4-13" value="&lt;b&gt;SubA&lt;/b&gt;" style="html=1;whiteSpace=wrap;" vertex="1" parent="xgo39UhWLo-hMsVlRPf4-7">
          <mxGeometry width="50" height="30" relative="1" as="geometry">
            <mxPoint x="150" y="50" as="offset" />
          </mxGeometry>
        </mxCell>
        <mxCell id="xgo39UhWLo-hMsVlRPf4-14" style="edgeStyle=orthogonalEdgeStyle;rounded=0;orthogonalLoop=1;jettySize=auto;html=1;exitX=0;exitY=0.5;exitDx=0;exitDy=0;entryX=1;entryY=0.5;entryDx=0;entryDy=0;endArrow=blockThin;endFill=0;endSize=7;" edge="1" parent="1" source="xgo39UhWLo-hMsVlRPf4-13" target="xgo39UhWLo-hMsVlRPf4-8">
          <mxGeometry relative="1" as="geometry" />
        </mxCell>
        <mxCell id="xgo39UhWLo-hMsVlRPf4-18" value="&lt;b&gt;Figure 12.2 Illustration of the Meaning of Package Merge&lt;/b&gt;" style="text;html=1;align=center;verticalAlign=middle;resizable=0;points=[];autosize=1;strokeColor=none;fillColor=none;" vertex="1" parent="1">
          <mxGeometry y="120" width="340" height="30" as="geometry" />
        </mxCell>
      </root>
    </mxGraphModel>
  </diagram>
</mxfile>
